<svg id="e848b9d2-ec23-404c-b39d-4818d3b4866a" data-name="Layer 1" xmlns="http://www.w3.org/2000/svg" viewBox="0 0 26.62 49"><defs><style>.aea8b9e9-7dd2-4bbe-9312-e842c145ea78{fill:#fff;}</style></defs><title>facebook</title><path class="aea8b9e9-7dd2-4bbe-9312-e842c145ea78" d="M38.3,21.26l-.84,7.13a1.37,1.37,0,0,1-1.34,1.19H28.46l0,19.92H18.78l0-19.92H13.05a1.33,1.33,0,0,1-1.33-1.36l0-7.11A1.33,1.33,0,0,1,13,19.75h5.75V12.84c0-8,4.88-12.34,12-12.34h5.87A1.33,1.33,0,0,1,38,1.84v6a1.35,1.35,0,0,1-1.34,1.36H33.07c-3.89,0-4.63,1.83-4.63,4.56v6H37A1.33,1.33,0,0,1,38.3,21.26Z" transform="translate(-11.69 -0.5)"/></svg>