<svg id="b588f4e3-c005-4fbe-b7d7-548c3f105f6e" data-name="Layer 3" xmlns="http://www.w3.org/2000/svg" viewBox="0 0 451 310.5"><defs><style>.f220c13b-feda-4343-864e-d6b334458340{fill:#222230;}.a7fe1e70-c22e-4309-9d7e-1ff53dc13f37{opacity:0.5;}.f35b05f8-0adc-4f81-a9cd-33b5a764e031{fill:#6464ff;}.a487452a-9c09-4dce-8368-1583c5bed90b{fill:#ffb357;}.a3a0cb23-5102-4259-a2ef-ad8d0595542d{fill:#c548ff;}.a7313c60-ae32-428f-bddd-e94879789324{fill:#3cd668;}.a2f773f7-7158-43f4-b0dc-57bbf6e7663d{fill:#fff;}.b8d40081-7375-4df1-8570-34c538ee9748{fill:#2e2e3f;}.a6991cf6-319c-4ae4-9a4a-73f7cb5d2293{fill:#676775;}</style></defs><title>hero-image-final</title><rect class="f220c13b-feda-4343-864e-d6b334458340" width="451" height="265" rx="5"/><g class="a7fe1e70-c22e-4309-9d7e-1ff53dc13f37"><rect class="f35b05f8-0adc-4f81-a9cd-33b5a764e031" x="40.5" y="26" width="50" height="6" rx="3"/><rect class="a487452a-9c09-4dce-8368-1583c5bed90b" x="99" y="26" width="85" height="6" rx="3"/><rect class="a487452a-9c09-4dce-8368-1583c5bed90b" x="190" y="95" width="68" height="6" rx="3"/><rect class="a487452a-9c09-4dce-8368-1583c5bed90b" x="227" y="26" width="50" height="6" rx="3"/><rect class="a3a0cb23-5102-4259-a2ef-ad8d0595542d" x="192" y="26" width="25" height="6" rx="3"/><rect class="a487452a-9c09-4dce-8368-1583c5bed90b" x="179" y="49" width="19" height="6" rx="3"/><rect class="a7313c60-ae32-428f-bddd-e94879789324" x="166" y="95" width="19" height="6" rx="3"/><rect class="a3a0cb23-5102-4259-a2ef-ad8d0595542d" x="195" y="118" width="19" height="6" rx="3"/><rect class="a487452a-9c09-4dce-8368-1583c5bed90b" x="41.5" y="49" width="79.5" height="6" rx="3"/><rect class="a3a0cb23-5102-4259-a2ef-ad8d0595542d" x="40.5" y="72" width="59.5" height="6" rx="3"/><rect class="a7313c60-ae32-428f-bddd-e94879789324" x="101.5" y="95" width="59.5" height="6" rx="3"/><rect class="a7313c60-ae32-428f-bddd-e94879789324" x="40.5" y="95" width="13.5" height="6" rx="3"/><rect class="a7313c60-ae32-428f-bddd-e94879789324" x="127" y="49" width="44" height="6" rx="3"/><rect class="a487452a-9c09-4dce-8368-1583c5bed90b" x="106" y="72" width="30" height="6" rx="3"/><rect class="f35b05f8-0adc-4f81-a9cd-33b5a764e031" x="59" y="95" width="37" height="6" rx="3"/><rect class="a3a0cb23-5102-4259-a2ef-ad8d0595542d" x="142" y="72" width="40" height="6" rx="3"/><rect class="a7313c60-ae32-428f-bddd-e94879789324" x="204" y="49" width="125" height="6" rx="3"/><rect class="a7313c60-ae32-428f-bddd-e94879789324" x="219" y="118" width="8" height="6" rx="3"/><rect class="a7313c60-ae32-428f-bddd-e94879789324" x="233" y="118" width="33" height="6" rx="3"/><rect class="a3a0cb23-5102-4259-a2ef-ad8d0595542d" x="41.5" y="118" width="79.5" height="6" rx="3"/><rect class="f35b05f8-0adc-4f81-a9cd-33b5a764e031" x="127" y="118" width="64" height="6" rx="3"/><rect class="a487452a-9c09-4dce-8368-1583c5bed90b" x="271" y="118" width="58" height="6" rx="3"/><rect class="f35b05f8-0adc-4f81-a9cd-33b5a764e031" x="39.5" y="141" width="50" height="6" rx="3"/><rect class="a3a0cb23-5102-4259-a2ef-ad8d0595542d" x="98" y="141" width="85" height="6" rx="3"/><rect class="f35b05f8-0adc-4f81-a9cd-33b5a764e031" x="189" y="210" width="68" height="6" rx="3"/><rect class="a487452a-9c09-4dce-8368-1583c5bed90b" x="226" y="141" width="50" height="6" rx="3"/><rect class="a3a0cb23-5102-4259-a2ef-ad8d0595542d" x="191" y="141" width="25" height="6" rx="3"/><rect class="a3a0cb23-5102-4259-a2ef-ad8d0595542d" x="178" y="164" width="19" height="6" rx="3"/><rect class="a7313c60-ae32-428f-bddd-e94879789324" x="165" y="210" width="19" height="6" rx="3"/><rect class="a487452a-9c09-4dce-8368-1583c5bed90b" x="194" y="233" width="19" height="6" rx="3"/><rect class="a487452a-9c09-4dce-8368-1583c5bed90b" x="40.5" y="164" width="79.5" height="6" rx="3"/><rect class="f35b05f8-0adc-4f81-a9cd-33b5a764e031" x="39.5" y="187" width="59.5" height="6" rx="3"/><rect class="a3a0cb23-5102-4259-a2ef-ad8d0595542d" x="100.5" y="210" width="59.5" height="6" rx="3"/><rect class="a487452a-9c09-4dce-8368-1583c5bed90b" x="39.5" y="210" width="13.5" height="6" rx="3"/><rect class="f35b05f8-0adc-4f81-a9cd-33b5a764e031" x="126" y="164" width="44" height="6" rx="3"/><rect class="a3a0cb23-5102-4259-a2ef-ad8d0595542d" x="105" y="187" width="30" height="6" rx="3"/><rect class="a3a0cb23-5102-4259-a2ef-ad8d0595542d" x="58" y="210" width="37" height="6" rx="3"/><rect class="a487452a-9c09-4dce-8368-1583c5bed90b" x="141" y="187" width="40" height="6" rx="3"/><rect class="a3a0cb23-5102-4259-a2ef-ad8d0595542d" x="203" y="164" width="125" height="6" rx="3"/><rect class="a3a0cb23-5102-4259-a2ef-ad8d0595542d" x="218" y="233" width="8" height="6" rx="3"/><rect class="a2f773f7-7158-43f4-b0dc-57bbf6e7663d" x="232" y="233" width="33" height="6" rx="3"/><rect class="a487452a-9c09-4dce-8368-1583c5bed90b" x="40.5" y="233" width="79.5" height="6" rx="3"/><rect class="a7313c60-ae32-428f-bddd-e94879789324" x="126" y="233" width="64" height="6" rx="3"/><rect class="a2f773f7-7158-43f4-b0dc-57bbf6e7663d" x="270" y="233" width="58" height="6" rx="3"/></g><path class="b8d40081-7375-4df1-8570-34c538ee9748" d="M600.5,247.5v255a5,5,0,0,1-5,5H256.24l4-4.5,5.31-6L277,484l9.39-10.61,18.59-21,.34-.39,14.16-16,26.55-30,25.66-29,5.31-6,4.42-5,5.31-6,1.77-2,5.31-6,8-9,1.77-2,3.54-4,1.77-2,9.73-11,3.54-4,1.77-2,3.54-4,63.28-71.5H595.5A5,5,0,0,1,600.5,247.5Z" transform="translate(-149.5 -242.5)"/><rect class="a6991cf6-319c-4ae4-9a4a-73f7cb5d2293" x="309" y="54.5" width="125" height="80"/><rect class="a6991cf6-319c-4ae4-9a4a-73f7cb5d2293" x="309" y="141.5" width="125" height="80"/><rect class="a6991cf6-319c-4ae4-9a4a-73f7cb5d2293" x="309" y="228.5" width="125" height="36.5"/><rect class="a6991cf6-319c-4ae4-9a4a-73f7cb5d2293" x="276" y="140.5" width="9" height="6" rx="3"/><rect class="a6991cf6-319c-4ae4-9a4a-73f7cb5d2293" x="204" y="187.5" width="9" height="6" rx="3"/><rect class="a6991cf6-319c-4ae4-9a4a-73f7cb5d2293" x="229" y="254.5" width="9" height="6" rx="3"/><rect class="a6991cf6-319c-4ae4-9a4a-73f7cb5d2293" x="217" y="140.5" width="50" height="6" rx="3"/><rect class="a6991cf6-319c-4ae4-9a4a-73f7cb5d2293" x="235" y="163.5" width="50" height="6" rx="3"/><path class="a6991cf6-319c-4ae4-9a4a-73f7cb5d2293" d="M377.5,409a3,3,0,0,1-3,3H340.76l5.31-6H374.5A3,3,0,0,1,377.5,409Z" transform="translate(-149.5 -242.5)"/><path class="a6991cf6-319c-4ae4-9a4a-73f7cb5d2293" d="M333.5,500a3,3,0,0,1-3,3H260.22l5.31-6h65A3,3,0,0,1,333.5,500Z" transform="translate(-149.5 -242.5)"/><rect class="a6991cf6-319c-4ae4-9a4a-73f7cb5d2293" x="219" y="187.5" width="68" height="6" rx="3"/><rect class="a6991cf6-319c-4ae4-9a4a-73f7cb5d2293" x="244" y="254.5" width="43" height="6" rx="3"/><rect class="a6991cf6-319c-4ae4-9a4a-73f7cb5d2293" x="252" y="117.5" width="33" height="6" rx="3"/><rect class="a6991cf6-319c-4ae4-9a4a-73f7cb5d2293" x="165" y="187.5" width="33" height="6" rx="3"/><rect class="a6991cf6-319c-4ae4-9a4a-73f7cb5d2293" x="190" y="254.5" width="33" height="6" rx="3"/><path class="a6991cf6-319c-4ae4-9a4a-73f7cb5d2293" d="M394.5,363a3,3,0,0,1-3,3h-10l5.31-6h4.73A3,3,0,0,1,394.5,363Z" transform="translate(-149.5 -242.5)"/><path class="a6991cf6-319c-4ae4-9a4a-73f7cb5d2293" d="M434.5,340a3,3,0,0,1-3,3H401.82l1.77-2,3.54-4H431.5A3,3,0,0,1,434.5,340Z" transform="translate(-149.5 -242.5)"/><path class="a6991cf6-319c-4ae4-9a4a-73f7cb5d2293" d="M434.5,317a3,3,0,0,1-3,3h-9.33l1.77-2,3.54-4h4A3,3,0,0,1,434.5,317Z" transform="translate(-149.5 -242.5)"/><path class="a6991cf6-319c-4ae4-9a4a-73f7cb5d2293" d="M600.5,247.5v30H459.79l7.52-8.5,15.93-18,7.52-8.5H595.5A5,5,0,0,1,600.5,247.5Z" transform="translate(-149.5 -242.5)"/><circle class="b8d40081-7375-4df1-8570-34c538ee9748" cx="437" cy="17.5" r="5"/><circle class="b8d40081-7375-4df1-8570-34c538ee9748" cx="420" cy="17.5" r="5"/><circle class="b8d40081-7375-4df1-8570-34c538ee9748" cx="403" cy="17.5" r="5"/><circle class="a6991cf6-319c-4ae4-9a4a-73f7cb5d2293" cx="270" cy="225.5" r="16"/><circle class="a6991cf6-319c-4ae4-9a4a-73f7cb5d2293" cx="211" cy="225.5" r="16"/><path class="a6991cf6-319c-4ae4-9a4a-73f7cb5d2293" d="M317.5,468a16,16,0,0,1-31.07,5.39l18.59-21A16,16,0,0,1,317.5,468Z" transform="translate(-149.5 -242.5)"/><rect class="f220c13b-feda-4343-864e-d6b334458340" x="200.5" y="265.5" width="50" height="35"/><rect class="f220c13b-feda-4343-864e-d6b334458340" x="125.5" y="300.5" width="200" height="10" rx="5"/></svg>