<svg id="Layer_1" data-name="Layer 1" xmlns="http://www.w3.org/2000/svg" viewBox="0 0 43.23 49">
  <defs>
    <style>
      .cls-1 {
        fill: #e8994b;
      }
    </style>
  </defs>
  <title>logo_uncompressed</title>
  <path class="cls-1" d="M44.24.5H5.76A2.37,2.37,0,0,0,3.4,3.09L4,9.72H9.05a3.13,3.13,0,0,1,3.15,3,3.07,3.07,0,0,1-3.08,3.13H4.55l.14,1.51H9.05a3.19,3.19,0,0,1,2.67,1.44,2.37,2.37,0,0,1,.19.35,3,3,0,0,1,.29,1.22,3.07,3.07,0,0,1-3.08,3.14H5.24L5.38,25H9.24a3.08,3.08,0,0,1,3,3.07,3,3,0,0,1-.9,2.17,3.09,3.09,0,0,1-1.51.83,3,3,0,0,1-.67.07H5.94l.13,1.51h3a3.12,3.12,0,0,1,.82.11,3.08,3.08,0,0,1,1.36,5.14,3,3,0,0,1-2.18.9H6.63L7,42.77A3.12,3.12,0,0,0,9.27,45.5l13.42,3.69a8.83,8.83,0,0,0,4.62,0l1.05-.29,12.37-3.4A3.12,3.12,0,0,0,43,42.77l2.36-26.14H41.13a3.45,3.45,0,0,1-3.45-3.45,3.58,3.58,0,0,1,.2-1.19c0-.08.07-.16.11-.25h0a3,3,0,0,1,.71-1.1,3.08,3.08,0,0,1,2.18-.91H46l.6-6.63A2.37,2.37,0,0,0,44.24.5Zm-7.8,12.68-.31,3.44-.41,4.47-.4,4.48-.21,2.24-.58,6.42A2,2,0,0,1,33.08,36L25,38.18l-8.73-2.4a1,1,0,0,1-.74-.89l-.54-6a1,1,0,0,1,1-1.1h2.47a1,1,0,0,1,1,.92l.22,2.45a1.35,1.35,0,0,0,1,1.17L25,33.54l4.25-1.17a1.45,1.45,0,0,0,1.07-1.28l.3-3.28.11-1.19a1,1,0,0,0-1-1.05H20.16a1.07,1.07,0,0,1-1.07-1l-.22-2.42a1,1,0,0,1,1-1.09H30.35a.94.94,0,0,0,.95-.87l.24-2.56a1,1,0,0,0-1-1H14.77a1,1,0,0,1-1-.9l-.22-2.51a1,1,0,0,1,1-1.07H35.48A1,1,0,0,1,36.44,13.18Z" transform="translate(-3.39 -0.5)"/>
</svg>
