<svg id="fa1c6e1f-6c54-4e40-aca2-9b587608f2f2" data-name="Layer 1" xmlns="http://www.w3.org/2000/svg" viewBox="0 0 49 43.66"><defs><style>.bc8961ff-0c8d-457e-918f-644caa320583{fill:#fff;}</style></defs><title>reddit</title><path class="bc8961ff-0c8d-457e-918f-644caa320583" d="M49.5,25.37a5.35,5.35,0,0,0-9.08-3.84A26.27,26.27,0,0,0,26.08,17L28.52,5.48l8,1.7a3.82,3.82,0,1,0,3.81-4,3.78,3.78,0,0,0-3.41,2.14L28,3.42a.94.94,0,0,0-1.13.74S24.17,16.9,24.17,17a26.19,26.19,0,0,0-14.6,4.55A5.25,5.25,0,0,0,5.86,20,5.36,5.36,0,0,0,3.67,30.26a11,11,0,0,0-.13,1.63c0,8.25,9.61,14.94,21.45,14.94s21.45-6.69,21.45-14.94a10.81,10.81,0,0,0-.13-1.61A5.39,5.39,0,0,0,49.5,25.37ZM12.73,29.21A3.83,3.83,0,1,1,16.56,33,3.84,3.84,0,0,1,12.73,29.21ZM34.09,39.33c-2.62,2.61-7.63,2.81-9.1,2.81s-6.49-.21-9.1-2.81a1,1,0,1,1,1.41-1.41c1.64,1.65,5.16,2.24,7.69,2.24s6.05-.58,7.69-2.24a1,1,0,0,1,1.41,0A1,1,0,0,1,34.09,39.33ZM33.41,33a3.83,3.83,0,1,1,3.83-3.83A3.84,3.84,0,0,1,33.41,33Z" transform="translate(-0.5 -3.17)"/></svg>