<svg id="a335780d-540f-4d8d-9c04-d50232bf6366" data-name="Layer 1" xmlns="http://www.w3.org/2000/svg" viewBox="0 0 49 46.77"><defs><style>.a28f9642-3765-4b75-8114-a3749901ede7{fill:#b0b0d6;}</style></defs><title>search</title><g id="ba449bd4-73c5-448f-8458-ba9c5d5c44b3" data-name="Zoom"><path class="a28f9642-3765-4b75-8114-a3749901ede7" d="M48.79,44.44,37.7,33.78a19.34,19.34,0,0,0,4.35-12.21c0-11-9.32-20-20.77-20S.5,10.57.5,21.57s9.32,20,20.78,20a21.24,21.24,0,0,0,13-4.44L45.39,47.71a2.46,2.46,0,0,0,3.4,0A2.23,2.23,0,0,0,48.79,44.44ZM5.32,21.57c0-8.45,7.16-15.33,16-15.33s16,6.88,16,15.33-7.16,15.33-16,15.33S5.32,30,5.32,21.57Z" transform="translate(-0.5 -1.61)"/></g></svg>