<svg id="b375aad9-4fd6-44a3-9e36-6a46cc450460" data-name="Layer 1" xmlns="http://www.w3.org/2000/svg" viewBox="0 0 49 39.81"><defs><style>.aa0809d6-6e52-474b-9d5d-70e053ab43c0{fill:#fff;}</style></defs><title>twitter</title><path class="aa0809d6-6e52-474b-9d5d-70e053ab43c0" d="M49.5,9.81a20.6,20.6,0,0,1-5.79,1.58,10,10,0,0,0,4.42-5.55,19.81,19.81,0,0,1-6.37,2.43,10.09,10.09,0,0,0-17.14,9.16A28.45,28.45,0,0,1,3.91,6.93,10.05,10.05,0,0,0,7,20.35a9.87,9.87,0,0,1-4.54-1.24v.11a10.08,10.08,0,0,0,8.05,9.87,9.79,9.79,0,0,1-2.64.34A8.56,8.56,0,0,1,6,29.25a10.14,10.14,0,0,0,9.39,7A20.16,20.16,0,0,1,2.9,40.54,19,19,0,0,1,.5,40.4a28.27,28.27,0,0,0,15.41,4.51c18.49,0,28.59-15.32,28.59-28.59,0-.44,0-.87,0-1.3A20.11,20.11,0,0,0,49.5,9.81Z" transform="translate(-0.5 -5.09)"/></svg>